# xmcd
#
# Track frame offsets: 
#        183
#        76123
#        87458
#        108908
#        131533
#        154203
#
# Disc length: 2199 seconds
#
# Revision: 7
# Processed by: cddbd v1.5.2PL0 Copyright (c) Steve Scherf et al.
# Submitted via: ExactAudioCopy v1.0b3
#
DISCID=3f089506
DTITLE=Summer, Donna - Love To Love You Baby [600753259450]
DYEAR=1975
DGENRE=Disco
TTITLE0=Love To Love You Baby
TTITLE1=Full Of Emptiness
TTITLE2=Need-A-Man Blues
TTITLE3=Whispering Waves
TTITLE4=Pandora's Box
TTITLE5=Full Of Emptiness (Reprise)
EXTD=YEAR: 1975 ID3G: 4
EXTT0=
EXTT1=
EXTT2=
EXTT3=
EXTT4=
EXTT5=
PLAYORDER=
